<svg version="1.2" xmlns="http://www.w3.org/2000/svg" viewBox="0 0 193 186" width="193" height="186">
	<title>gitlab-svg</title>
	<style>
		.s0 { fill: #e24329 } 
		.s1 { fill: #fc6d26 } 
		.s2 { fill: #fca326 } 
	</style>
	<g id="LOGO">
		<path id="Layer" class="s0" d="m188.8 73.7l-0.2-0.7-26.2-68.2q-0.2-0.5-0.5-0.9-0.2-0.5-0.6-0.9-0.3-0.4-0.7-0.8-0.4-0.3-0.9-0.6-0.9-0.6-1.9-0.9-1.1-0.2-2.1-0.2-1.1 0.1-2.1 0.5-1 0.3-1.9 1-0.4 0.3-0.7 0.7-0.4 0.4-0.7 0.9-0.3 0.4-0.5 0.9-0.2 0.5-0.4 1l-17.6 54h-71.5l-17.7-54q-0.1-0.5-0.3-1-0.2-0.5-0.5-0.9-0.3-0.5-0.7-0.9-0.4-0.4-0.8-0.7-0.8-0.7-1.8-1-1-0.4-2.1-0.5-1.1 0-2.1 0.2-1.1 0.3-2 0.9-0.4 0.3-0.8 0.6-0.4 0.4-0.8 0.8-0.3 0.4-0.6 0.9-0.3 0.4-0.5 0.9l-26.2 68.2-0.2 0.7c-1.9 4.9-3 10-3.2 15.3-0.2 5.2 0.4 10.4 1.9 15.4 1.4 5.1 3.6 9.8 6.6 14.1 3 4.3 6.6 8.1 10.8 11.3l0.1 0.1 0.2 0.1 39.8 29.8 19.7 15 12 9q1.1 0.8 2.3 1.2 1.3 0.5 2.6 0.5 1.3 0 2.6-0.5 1.2-0.4 2.3-1.2l12-9 19.7-15 40-30h0.1c4.2-3.2 7.8-7 10.8-11.3 3-4.3 5.2-9 6.6-14.1 1.5-5 2.1-10.2 1.9-15.4-0.2-5.2-1.3-10.4-3.2-15.3z"/>
		<path id="Layer" class="s1" d="m188.8 73.7l-0.2-0.7q-4.8 1-9.4 2.5-4.7 1.5-9.1 3.5-4.4 2-8.6 4.5-4.2 2.4-8.1 5.3l-57.4 43.4c19.5 14.8 36.6 27.7 36.6 27.7l40-30 0.1-0.1c4.2-3.1 7.8-6.9 10.8-11.3 3-4.3 5.2-9 6.6-14 1.5-5.1 2.1-10.3 1.9-15.5-0.2-5.2-1.3-10.4-3.2-15.3z"/>
		<path id="Layer" class="s2" d="m59.4 159.9l19.7 14.9 12 9.1q1.1 0.8 2.3 1.2 1.3 0.4 2.6 0.4 1.3 0 2.6-0.4 1.2-0.4 2.3-1.2l12-9.1 19.7-14.9c0 0-17-12.9-36.6-27.7-19.6 14.8-36.6 27.7-36.6 27.7z"/>
		<path id="Layer" class="s1" d="m38.6 88.8q-3.9-2.9-8.1-5.4-4.2-2.4-8.6-4.4-4.4-2-9.1-3.5-4.6-1.5-9.4-2.5l-0.2 0.7c-1.9 4.9-3 10-3.2 15.3-0.2 5.2 0.4 10.4 1.9 15.4 1.4 5.1 3.6 9.8 6.6 14.1 3 4.3 6.6 8.1 10.8 11.3l0.1 0.1 0.2 0.1 39.8 29.8c0 0 17-12.8 36.6-27.6z"/>
	</g>
</svg>